<svg width="19" height="20" viewBox="0 0 19 20" fill="none" xmlns="http://www.w3.org/2000/svg">
<rect x="0.461548" y="0.882812" width="18.1933" height="18.1933" fill="white"/>
<path fill-rule="evenodd" clip-rule="evenodd" d="M0.461548 0.882812V19.0761H18.6548V16.1933H16.4599L15.3299 14.9438L14.1942 16.1933H6.95753V10.3698H4.62184L7.51901 3.8132H10.3131L11.3105 6.05938V3.8132H14.769L15.3694 5.5058L15.9739 3.8132H18.6548V0.882812H0.461548ZM16.5163 4.5422L15.3743 7.7134L14.2397 4.5422H12.0649V9.63366L9.81753 4.5422H8.02818L5.78055 9.6337H7.30802L7.72996 8.61538H10.072L10.5011 9.6337H12.0649V9.63366L12.0649 9.6337H13.4396V6.06964L14.7489 9.6337H15.9708L17.28 6.06229V9.6337H18.6548V4.5422H16.5163ZM8.90098 5.80813L9.592 7.47376H8.20993L8.90098 5.80813ZM15.3677 12.0018L16.8587 10.3725H18.6548L16.2405 12.9036L18.6548 15.464H16.8296L15.3385 13.8201L13.8401 15.464H12.0654L14.4656 12.9182L12.0654 10.3725H13.891L15.3677 12.0018ZM7.73034 10.3725V15.464H12.0653V14.2856H9.11965V13.4928H11.9926V12.3435H9.11965V11.5508H12.0653V10.3725H7.73034ZM18.6549 14.3937L17.2567 12.9062L18.6549 11.4312V14.3937Z" fill="#006FCF"/>
</svg>
