<svg width="26" height="18" viewBox="0 0 26 18" fill="none" xmlns="http://www.w3.org/2000/svg">
<path d="M19.3064 1.12746C19.1768 0.909715 18.9423 0.764282 18.6747 0.764282C18.2665 0.764282 17.9356 1.10242 17.9356 1.51971C17.9356 1.73957 18.0276 1.9375 18.1743 2.07559L23.7454 8.97913L18.2362 15.7515H17.6355H15.8563L21.0627 9.55915C21.066 9.55533 21.0691 9.55151 21.0723 9.54769C21.2184 9.38515 21.283 9.19476 21.2795 9.00709C21.283 8.81952 21.2184 8.62912 21.0734 8.46619L21.0723 8.46649C21.0691 8.46267 21.066 8.45885 21.0627 8.45513L14.8456 1.13943C14.8442 1.13772 14.8428 1.13601 14.8413 1.1343C14.7126 0.912732 14.4761 0.764282 14.2058 0.764282H9.83939C9.43125 0.764282 9.10035 1.10242 9.10035 1.51971C9.10035 1.64633 9.11727 1.77799 9.18497 1.87062L14.9714 9.03515L10.0397 15.0831C10.0104 15.1131 9.58543 15.7321 8.83823 15.7321H2.94827C2.14725 15.7321 1.48299 15.0931 1.48299 14.2444V3.76044C1.48299 3.02161 2.14725 2.26276 2.96638 2.26276H6.63066C7.06261 2.26276 7.3697 1.96124 7.3697 1.51971C7.3697 1.07818 7.06261 0.75 6.63066 0.75L2.93046 0.764986C1.17758 0.764986 0 2.24275 0 3.74505V14.2444C0 15.8619 1.39513 17.2397 2.93046 17.2397H8.81875C9.1157 17.2397 9.38736 17.1953 9.63197 17.1241C9.6669 17.1139 9.70134 17.1032 9.73509 17.092C10.5469 16.8231 11.0369 16.2705 11.1318 16.1534L16.682 9.54155C16.9445 9.23711 16.9794 8.79558 16.6863 8.46619L16.6852 8.46649C16.682 8.46267 16.6789 8.45885 16.6757 8.45513L11.4257 2.26276H13.2485H13.8492L19.3357 9.00719L13.5622 16.1259C13.5603 16.128 13.5639 16.1341 13.5721 16.1437C13.5181 16.2486 13.4874 16.3678 13.4874 16.4946C13.4874 16.9118 13.8183 17.25 14.2264 17.25H18.5928C18.8632 17.25 19.0995 17.1013 19.2284 16.8799C19.2298 16.8782 19.2312 16.8765 19.2326 16.8749L25.4498 9.55915C25.453 9.55533 25.4561 9.55151 25.4593 9.54769C25.7534 9.2186 25.7186 8.77707 25.4561 8.47263L19.3064 1.12746Z" fill="white"/>
</svg>
