<svg width="16" height="16" viewBox="0 0 16 16" fill="none" xmlns="http://www.w3.org/2000/svg">
<path d="M15.7397 0.26035C16.0579 0.578555 16.0844 1.07799 15.8192 1.4264L15.7397 1.51743L9.25552 7.9999L15.7397 14.4826C16.0868 14.8297 16.0868 15.3925 15.7397 15.7397C15.4214 16.0579 14.922 16.0844 14.5736 15.8192L14.4826 15.7397L7.9999 9.25654L1.51743 15.7397C1.1703 16.0868 0.607482 16.0868 0.26035 15.7397C-0.0578554 15.4214 -0.0843725 14.922 0.180798 14.5736L0.26035 14.4826L6.74327 7.9999L0.26035 1.51743C-0.0867832 1.1703 -0.0867832 0.607482 0.26035 0.26035C0.578555 -0.0578554 1.07799 -0.0843725 1.4264 0.180798L1.51743 0.26035L7.9999 6.74327L14.4826 0.26035C14.8297 -0.0867832 15.3925 -0.0867832 15.7397 0.26035Z" fill="#141413"/>
</svg>
