<svg width="27" height="18" viewBox="0 0 28 18" fill="none" xmlns="http://www.w3.org/2000/svg">
<rect x="0.669189" y="0.814453" width="26.3324" height="16.3697" fill="white"/>
<path d="M26.812 9.90918C26.812 9.90918 19.6693 14.8092 6.58337 17.0007H26.812V9.90918Z" fill="#F78D1E"/>
<path fill-rule="evenodd" clip-rule="evenodd" d="M0.669189 0.817263L26.9046 0.814453V0.817263H27V17.1863H0.669189V0.817263ZM26.8092 16.9979V0.99981H0.86001V16.9979H26.8092Z" fill="black"/>
<path fill-rule="evenodd" clip-rule="evenodd" d="M1.8833 5.82324H2.97307C4.17846 5.82324 5.01675 6.58466 5.01675 7.67761C5.01675 8.22268 4.75948 8.7509 4.32588 9.09929C3.96166 9.39431 3.54541 9.52636 2.96729 9.52636H1.8833V5.82324ZM2.82277 8.89975C3.30261 8.89975 3.60613 8.80984 3.84027 8.60473C4.09754 8.38277 4.25074 8.02876 4.25074 7.67193C4.25074 7.31791 4.09754 6.97233 3.84027 6.75037C3.59457 6.53402 3.30261 6.44973 2.82277 6.44973H2.62331V8.89975H2.82277Z" fill="black"/>
<rect x="5.35779" y="5.82422" width="0.742892" height="3.70312" fill="black"/>
<path d="M7.91892 7.24533C7.47376 7.08518 7.34079 6.97842 7.34079 6.77893C7.34079 6.54573 7.57493 6.36872 7.89579 6.36872C8.11837 6.36872 8.30048 6.45863 8.49416 6.66936L8.88439 6.17486C8.56353 5.90232 8.18197 5.76465 7.76572 5.76465C7.0922 5.76465 6.57767 6.21981 6.57767 6.8267C6.57767 7.33805 6.81759 7.59935 7.51423 7.84098C7.80618 7.94213 7.95361 8.00675 8.02876 8.0517C8.17619 8.14723 8.25134 8.27928 8.25134 8.43381C8.25134 8.73445 8.00564 8.95641 7.67322 8.95641C7.31767 8.95641 7.03439 8.78502 6.86095 8.46191L6.3811 8.91145C6.7222 9.40033 7.13556 9.61668 7.69923 9.61668C8.47103 9.61668 9.01447 9.11656 9.01447 8.4001C9.01447 7.81288 8.76587 7.54597 7.91892 7.24533Z" fill="black"/>
<path d="M9.25146 7.67877C9.25146 8.76892 10.1302 9.61181 11.2633 9.61181C11.5842 9.61181 11.8559 9.55 12.1941 9.39547V8.54414C11.8964 8.83354 11.6333 8.94873 11.298 8.94873C10.5494 8.94873 10.0175 8.42052 10.0175 7.67034C10.0175 6.9595 10.5667 6.39757 11.2633 6.39757C11.6189 6.39757 11.8848 6.5212 12.1941 6.8134V5.96489C11.8675 5.80474 11.5987 5.7373 11.2807 5.7373C10.1533 5.74011 9.25146 6.60268 9.25146 7.67877Z" fill="black"/>
<path d="M18.0852 8.31076L17.0706 5.82422H16.2583L17.8742 9.62286H18.276L19.9207 5.82422H19.1142L18.0852 8.31076Z" fill="black"/>
<path d="M20.2561 9.52734H22.3634V8.90078H20.999V7.90055H22.3142V7.274H20.999V6.45077H22.3634V5.82422H20.2561V9.52734Z" fill="black"/>
<path fill-rule="evenodd" clip-rule="evenodd" d="M23.9591 5.82324C24.8176 5.82324 25.309 6.22221 25.309 6.9162C25.309 7.48374 24.9997 7.85462 24.4419 7.967L25.6415 9.52636H24.728L23.699 8.04006H23.6007V9.52636H22.8578V5.82324H23.9591ZM23.6006 7.52869H23.8174C24.2915 7.52869 24.543 7.3264 24.543 6.95553C24.543 6.59589 24.2915 6.40764 23.829 6.40764H23.6006V7.52869Z" fill="black"/>
<path fill-rule="evenodd" clip-rule="evenodd" d="M25.8337 5.8457C26.0119 5.8457 26.1138 5.91537 26.1138 6.03862C26.1138 6.12437 26.0565 6.18867 25.9546 6.21011L26.1965 6.46734H25.9801L25.7764 6.22619V6.46734H25.5981V5.8457H25.8337ZM25.7403 6.13402H25.7721C25.8613 6.13402 25.9058 6.10294 25.9058 6.04077C25.9058 5.97861 25.8613 5.94753 25.7721 5.94753H25.7403V6.13402Z" fill="black"/>
<path fill-rule="evenodd" clip-rule="evenodd" d="M25.3018 6.19479C25.3018 5.90756 25.5393 5.67676 25.8349 5.67676C26.1252 5.67676 26.3627 5.91269 26.3627 6.19479C26.3627 6.47688 26.1252 6.71282 25.8349 6.71282C25.5393 6.71282 25.3018 6.48201 25.3018 6.19479ZM25.8349 5.76908C25.5973 5.76908 25.4073 5.95885 25.4073 6.19479C25.4073 6.43072 25.6026 6.62049 25.8349 6.62049C26.0671 6.62049 26.2571 6.43072 26.2571 6.19479C26.2571 5.96398 26.0671 5.76908 25.8349 5.76908Z" fill="black"/>
<path d="M16.4809 7.67855C16.4809 8.76588 15.5732 9.64811 14.4546 9.64811C13.3359 9.64811 12.4282 8.76588 12.4282 7.67855C12.4282 6.59121 13.3359 5.70898 14.4546 5.70898C15.5732 5.70898 16.4809 6.59121 16.4809 7.67855Z" fill="#F78D1E"/>
</svg>
