<svg width="28" height="18" viewBox="0 0 28 18" fill="none" xmlns="http://www.w3.org/2000/svg">
<rect x="10.1398" y="2.29492" width="7.89126" height="13.0309" fill="#FF5F00"/>
<path d="M10.9527 8.81208C10.9507 6.26966 12.1051 3.86752 14.0832 2.29779C10.7227 -0.372371 5.89677 0.0165601 2.99705 3.19125C0.0973363 6.36594 0.0973363 11.2605 2.99705 14.4352C5.89677 17.6099 10.7227 17.9988 14.0832 15.3287C12.1044 13.7584 10.95 11.3553 10.9527 8.81208Z" fill="#EB001B"/>
<path d="M26.41 14.0387V13.7599H26.5229V13.7134H26.252V13.7599H26.3649V14.0387H26.41Z" fill="#F79E1B"/>
<path d="M26.9294 13.7134H26.8391L26.7488 13.9458L26.6585 13.7134H26.5682V14.0387H26.6359V13.7831L26.7109 13.9922H26.7939L26.8665 13.7831V14.0387H26.9294V13.7134Z" fill="#F79E1B"/>
<path d="M27.3454 8.81235C27.3454 11.9851 25.5535 14.8793 22.7308 16.2658C19.9081 17.6523 16.5503 17.2876 14.0833 15.3266C16.0605 13.7556 17.215 11.3538 17.215 8.8112C17.215 6.26864 16.0605 3.86682 14.0833 2.29575C16.5503 0.334814 19.9081 -0.0298578 22.7308 1.35661C25.5535 2.74309 27.3454 5.63729 27.3454 8.81005V8.81235Z" fill="#F79E1B"/>
</svg>
