<svg width="20px" height="17px" viewBox="0 0 27 17" version="1.1" xmlns="http://www.w3.org/2000/svg" xmlns:xlink="http://www.w3.org/1999/xlink">
    <title>ic_C2P_mark_dark_S_16px</title>
    <defs>
        <polygon id="path-1" points="0 0 25.763721 0 25.763721 16 0 16"/>
    </defs>
    <g id="V3-for-Sina" stroke="none" stroke-width="1" fill="none" fill-rule="evenodd">
        <g id="SRC_icon_white" transform="translate(-0.000000, 0.800000)">
            <mask id="mask-2" fill="white">
                <use xlink:href="#path-1"/>
            </mask>
            <g id="path-1"/>
            <path d="M19.3793383,0.366068293 C19.2491654,0.15484878 19.0138074,0.0137756098 18.7451654,0.0137756098 C18.3354864,0.0137756098 18.0033383,0.34177561 18.0033383,0.746556098 C18.0033383,0.95982439 18.095684,1.15182439 18.2429432,1.28577561 L23.835042,7.98236098 L18.3050667,14.5517268 L17.7021037,14.5517268 L15.9161284,14.5517268 L21.1422025,8.54499512 C21.1455605,8.5412878 21.1486222,8.53758049 21.1518815,8.53387317 L21.1529679,8.53426341 C21.2985481,8.37621463 21.3633383,8.19153171 21.3598815,8.00948293 C21.3633383,7.82753171 21.2985481,7.64284878 21.1529679,7.4848 L21.1518815,7.48509268 C21.1486222,7.48138537 21.1455605,7.47767805 21.1422025,7.47406829 L14.9016099,0.377678049 C14.9002272,0.376019512 14.8988444,0.374360976 14.897363,0.372702439 C14.7681778,0.15777561 14.5307457,0.0137756098 14.259437,0.0137756098 L9.87652346,0.0137756098 C9.46684444,0.0137756098 9.1346963,0.34177561 9.1346963,0.746556098 C9.1346963,0.869385366 9.15168395,0.997092683 9.21963457,1.08694634 L15.0279309,8.03670244 L10.0776099,13.9033366 C10.0481778,13.9324098 9.62160988,14.5328976 8.87158519,14.5328976 L2.95938765,14.5328976 C2.15533827,14.5328976 1.48857284,13.9130927 1.48857284,13.0897756 L1.48857284,2.92011707 C1.48857284,2.20343415 2.15533827,1.46733659 2.97756049,1.46733659 L6.65568395,1.46733659 C7.0892642,1.46733659 7.39751111,1.17484878 7.39751111,0.746556098 C7.39751111,0.318263415 7.0892642,-7.80487805e-05 6.65568395,-7.80487805e-05 L2.94151111,0.0144585366 C1.18200494,0.0144585366 -1.97530864e-05,1.44792195 -1.97530864e-05,2.90519024 L-1.97530864e-05,13.0897756 C-1.97530864e-05,14.6588488 1.40037531,15.9953366 2.94151111,15.9953366 L8.85202963,15.9953366 C9.1501037,15.9953366 9.42279506,15.9522146 9.66832593,15.8831415 C9.70338765,15.8732878 9.73795556,15.8628488 9.7718321,15.8520195 C10.5867457,15.5911415 11.0785975,15.0551415 11.1738074,14.9415805 L16.7449679,8.52792195 C17.0084741,8.23260488 17.0435358,7.8043122 16.7493136,7.4848 L16.7482272,7.48509268 C16.7449679,7.48138537 16.7419062,7.47767805 16.7386469,7.47406829 L11.4688198,1.46733659 L13.2985481,1.46733659 L13.9015111,1.46733659 L19.4086716,8.00958049 L13.6134123,14.9148488 C13.6115358,14.9168976 13.6150914,14.9228488 13.6232889,14.9321171 C13.5691654,15.0338732 13.5383506,15.1495805 13.5383506,15.2725073 C13.5383506,15.6771902 13.8704988,16.0052878 14.280079,16.0052878 L18.6629926,16.0052878 C18.9344,16.0052878 19.1716346,15.8610927 19.3010173,15.6462634 C19.3024,15.6446049 19.3037827,15.6429463 19.3051654,15.6413854 L25.5458568,8.54499512 C25.549116,8.5412878 25.5521778,8.53758049 25.555437,8.53387317 L25.5565235,8.53426341 C25.8506469,8.21465366 25.815684,7.78636098 25.5521778,7.4910439 L19.3793383,0.366068293 Z" id="Fill-1" fill="#141413" fill-rule="nonzero" mask="url(#mask-2)"/>
        </g>
    </g>
</svg>