<svg width="30" height="10" viewBox="0 0 30 10" fill="none" xmlns="http://www.w3.org/2000/svg">
<path fill-rule="evenodd" clip-rule="evenodd" d="M21.2028 6.54183C21.2084 5.14878 20.0228 4.54344 19.0745 4.05925C18.438 3.73428 17.9084 3.46389 17.9176 3.04654C17.9243 2.73021 18.2346 2.39428 18.9115 2.308C19.2472 2.26487 20.1726 2.23219 21.2229 2.70276L21.6339 0.832241C21.0698 0.632249 20.3446 0.441406 19.4407 0.441406C17.1238 0.441406 15.4933 1.64005 15.4785 3.35764C15.4637 4.62687 16.643 5.33534 17.5308 5.75755C18.4441 6.19021 18.7503 6.46733 18.7463 6.85293C18.7409 7.44507 18.0183 7.70519 17.3441 7.71565C16.2013 7.73338 15.5239 7.4258 14.9869 7.18193L14.9359 7.1588L14.5115 9.09076C15.0595 9.33519 16.0695 9.54826 17.1184 9.55872C19.5844 9.55872 21.1947 8.37445 21.2028 6.54183ZM11.4935 0.602169L7.69524 9.42145H5.21722L3.34896 2.3825C3.2348 1.94852 3.13675 1.79036 2.79158 1.60736C2.22882 1.30933 1.29805 1.03091 0.47876 0.857062L0.53517 0.600862H4.52418C5.03187 0.600862 5.48987 0.930262 5.60537 1.50018L6.59255 6.60456L9.03162 0.602169H11.4935ZM29.4883 9.42176H27.3206L27.0385 8.10416H24.0313L23.5424 9.42176H21.0805L24.5968 1.24952C24.766 0.857373 25.1447 0.602481 25.5947 0.602481H27.5959L29.4883 9.42176ZM24.7055 6.29609L25.9398 2.9838L26.6503 6.29609H24.7055ZM12.9052 9.42176L14.8433 0.602481H12.5009L10.5615 9.42176H12.9052Z" fill="#1A1F71"/>
</svg>
